HIERARCHY
ROOT Hips
{
	OFFSET 0.000000 0.000000 0.000000 
	CHANNELS 6 Xposition Yposition Zposition Zrotation Yrotation Xrotation
	JOINT LeftUpLeg
	{
		OFFSET 1.363060 -1.794630 0.839290 
		CHANNELS 3 Zrotation Yrotation Xrotation
		JOINT LeftLeg
		{
			OFFSET 2.448110 -6.726130 0.000000 
			CHANNELS 3 Zrotation Yrotation Xrotation
			JOINT LeftFoot
			{
				OFFSET 2.562200 -7.039590 0.000000 
				CHANNELS 3 Zrotation Yrotation Xrotation
				JOINT LeftToeBase
				{
					OFFSET 0.157640 -0.433110 2.322550 
					CHANNELS 3 Zrotation Yrotation Xrotation
					End Site
					{
						OFFSET 0.000000 0.000000 0.000000 
					}
				}
			}
		}
	}
	JOINT RightUpLeg
	{
		OFFSET -1.305520 -1.794630 0.839290 
		CHANNELS 3 Zrotation Yrotation Xrotation
		JOINT RightLeg
		{
			OFFSET -2.542530 -6.985550 0.000000 
			CHANNELS 3 Zrotation Yrotation Xrotation
			JOINT RightFoot
			{
				OFFSET -2.568260 -7.056230 0.000000 
				CHANNELS 3 Zrotation Yrotation Xrotation
				JOINT RightToeBase
				{
					OFFSET -0.164730 -0.452590 2.363150 
					CHANNELS 3 Zrotation Yrotation Xrotation
					End Site
					{
						OFFSET 0.000000 0.000000 0.000000 
					}
				}
			}
		}
	}
	JOINT Spine
	{
		OFFSET 0.028270 2.035590 -0.193380 
		CHANNELS 3 Zrotation Yrotation Xrotation
		JOINT Spine1
		{
			OFFSET 0.056720 2.048850 -0.042750 
			CHANNELS 3 Zrotation Yrotation Xrotation
			JOINT Neck1
			{
				OFFSET -0.054170 1.746240 0.172020 
				CHANNELS 3 Zrotation Yrotation Xrotation
				JOINT Head
				{
					OFFSET 0.104070 1.761360 -0.123970 
					CHANNELS 3 Zrotation Yrotation Xrotation
					End Site
					{
						OFFSET 0.000000 0.000000 0.000000 
					}
				}
			}
			JOINT LeftArm
			{
				OFFSET 3.362410 1.200890 -0.311210 
				CHANNELS 3 Zrotation Yrotation Xrotation
				JOINT LeftForeArm
				{
					OFFSET 4.983000 -0.000000 -0.000000 
					CHANNELS 3 Zrotation Yrotation Xrotation
					JOINT LeftHand
					{
						OFFSET 3.483560 -0.000000 -0.000000 
						CHANNELS 3 Zrotation Yrotation Xrotation
						JOINT LeftHandIndex1
						{
							OFFSET 0.715260 -0.000000 -0.000000 
							CHANNELS 3 Zrotation Yrotation Xrotation
							End Site
							{
								OFFSET 0.000000 0.000000 0.000000 
							}
						}
					}
				}
			}
			JOINT RightArm
			{
				OFFSET -3.136600 1.374050 -0.404650 
				CHANNELS 3 Zrotation Yrotation Xrotation
				JOINT RightForeArm
				{
					OFFSET -5.241900 -0.000000 -0.000000 
					CHANNELS 3 Zrotation Yrotation Xrotation
					JOINT RightHand
					{
						OFFSET -3.444170 -0.000000 -0.000000 
						CHANNELS 3 Zrotation Yrotation Xrotation
						JOINT RightHandIndex1
						{
							OFFSET -0.622530 -0.000000 -0.000000 
							CHANNELS 3 Zrotation Yrotation Xrotation
							End Site
							{
								OFFSET 0.000000 0.000000 0.000000 
							}
						}
					}
				}
			}
		}
	}
}
MOTION
Frames: 12
Frame Time: 0.041667
-0.396179 17.959595 -32.354077 -6.470658 -6.179326 1.005755 -8.472319 -7.929497 -29.646607 3.040331 12.166050 37.165620 -0.891640 4.900764 6.481714 0.170100 -2.657300 -7.325900 27.440189 11.625789 -7.654728 -1.199557 -6.521576 25.978768 -0.080103 -1.199558 -0.599681 -0.488700 -4.482600 12.438500 5.145000 1.763705 5.023978 -0.516136 0.854637 -6.369351 4.228683 -4.644543 15.184595 0.124900 -1.934300 8.088000 -81.896069 6.545854 24.934360 13.832878 -23.235285 -3.004327 -0.502905 -0.845717 -2.745057 -7.125000 0.000000 0.000000 71.346500 4.871835 24.030353 -11.474585 23.660624 -2.862022 1.037586 -0.356549 2.705314 7.125000 0.000000 0.000000 
-0.397781 17.974009 -32.201531 -6.666033 -6.689139 1.108137 -7.874469 -7.981141 -29.755359 2.475472 11.604356 34.919790 -1.055324 5.630196 7.037367 0.109900 -2.137200 -5.885000 27.593810 11.544101 -6.993914 -1.112200 -6.339788 25.496754 -0.046740 -1.264628 -0.478090 -0.458000 -4.341300 12.038800 4.730255 2.145574 6.466630 -0.883095 1.094485 -5.260426 4.116525 -5.199965 16.704120 -0.144500 -2.070100 9.420000 -81.461153 3.608596 25.473676 13.419048 -22.638218 -2.830674 -0.509240 -0.859024 -2.602728 -7.125000 0.000000 0.000000 71.850526 7.987849 23.401191 -11.551038 23.638653 -2.854648 1.069175 -0.400472 2.992484 7.125000 0.000000 0.000000 
-0.400183 17.976511 -32.050986 -6.765169 -6.971615 1.222845 -7.403508 -8.059133 -29.748949 1.881441 10.921965 32.431252 -1.217221 6.396617 8.091642 0.112700 -2.164900 -5.961500 27.688709 11.498170 -6.577367 -1.098636 -6.296994 25.387424 0.053014 -1.580113 -0.704837 -0.376300 -3.939700 10.907200 4.788717 2.377327 5.907451 -0.908019 1.194998 -5.679355 4.173784 -5.234820 15.907720 -0.090700 -2.131800 8.802400 -81.575744 4.709970 25.413997 13.351239 -22.544478 -2.803294 -0.514910 -0.857216 -2.560943 -7.125000 0.000000 0.000000 71.671463 7.217203 23.702349 -11.820131 24.064542 -2.989874 1.052932 -0.356433 2.691630 7.125000 0.000000 0.000000 
-0.397881 17.965300 -31.895838 -6.899912 -6.904463 1.280616 -6.898753 -8.363667 -29.612383 1.321305 10.215646 29.995444 -1.313778 6.918764 8.924973 0.144100 -2.446200 -6.740600 27.828870 11.241775 -6.137369 -1.063291 -6.209317 25.151813 0.198868 -2.032968 -0.961907 -0.253700 -3.240800 8.949900 4.504628 2.470457 5.995555 -1.259106 1.245910 -5.475033 4.222133 -5.236397 15.723518 -0.154500 -2.100500 8.761500 -81.350444 4.719236 25.374030 13.209753 -22.332912 -2.751689 -0.515113 -0.810626 -2.529128 -7.125000 0.000000 0.000000 71.945420 7.869905 23.409730 -11.887996 24.141750 -3.047230 1.004700 -0.298409 2.330859 7.125000 0.000000 0.000000 
-0.391675 17.961297 -31.734984 -6.895275 -6.911295 1.445034 -6.504779 -8.741945 -29.401245 0.791170 9.462552 27.551985 -1.433796 7.491139 9.604537 0.161100 -2.586400 -7.129300 27.732184 11.105754 -5.773481 -1.025532 -6.149737 24.958377 0.241985 -2.191423 -1.209437 -0.175900 -2.701800 7.449500 4.730719 2.444383 4.982053 -1.093460 1.199543 -6.238944 4.594098 -4.818943 15.167156 0.143200 -1.949200 8.103400 -81.771932 6.810688 24.962345 13.195124 -22.301596 -2.748511 -0.512202 -0.782023 -2.638539 -7.125000 0.000000 0.000000 71.507608 6.459605 24.070880 -12.050142 24.444068 -3.150726 0.972603 -0.235379 1.928484 7.125000 0.000000 0.000000 
-0.385469 17.956292 -31.575431 -7.087427 -7.006727 1.638555 -5.890387 -9.135243 -29.237313 0.306749 8.709074 25.118731 -1.586243 8.189478 10.270342 0.148400 -2.482600 -6.841500 27.860171 11.223904 -5.242536 -0.985255 -6.067041 24.723870 0.311372 -2.421493 -1.511501 -0.159900 -2.576200 7.100900 5.280745 2.288607 4.410904 -0.601425 1.114892 -6.841782 4.762985 -4.557391 15.429557 0.380400 -1.866400 8.018500 -82.636966 7.937895 24.021550 13.160891 -22.233362 -2.729791 -0.513277 -0.790956 -2.479719 -7.125000 0.000000 0.000000 70.711262 5.852166 25.265826 -12.238554 24.772829 -3.257870 0.951914 -0.170181 1.504454 7.125000 0.000000 0.000000 
-0.377862 17.945281 -31.415278 -7.251149 -6.986059 1.843789 -5.295949 -9.574313 -29.136856 -0.142324 7.945955 22.713254 -1.710333 8.795849 10.900697 0.126700 -2.294600 -6.320500 28.003256 11.270387 -4.763325 -0.947550 -5.978057 24.484205 0.438491 -2.821482 -1.846632 -0.097400 -2.012400 5.540000 5.406667 2.194451 4.675655 -0.505084 1.094924 -6.525791 4.690104 -4.659792 15.492733 0.364400 -1.927000 8.154500 -83.005746 7.574190 23.545693 13.103890 -22.139452 -2.702076 -0.515889 -0.808497 -2.194909 -7.125000 0.000000 0.000000 70.426315 6.751083 25.821729 -12.295544 24.823207 -3.277343 0.956616 -0.124322 1.444381 7.125000 0.000000 0.000000 
-0.371055 17.935572 -31.256426 -7.318613 -6.955590 1.976520 -4.742374 -10.113815 -28.986728 -0.548178 7.188619 20.401749 -1.790400 9.223120 11.349208 0.117900 -2.214100 -6.097700 28.056207 11.165067 -4.275013 -0.907403 -5.877941 24.231909 0.527912 -3.106616 -2.150772 -0.130700 -2.330600 6.420200 4.541150 2.574991 6.034571 -1.299140 1.328678 -5.227575 4.290101 -5.441737 16.206613 -0.145300 -2.174500 9.086300 -81.942495 4.798535 24.828683 12.824985 -21.754279 -2.591869 -0.516502 -0.829015 -2.311519 -7.125000 0.000000 0.000000 71.448279 9.731272 24.289386 -12.226210 24.585369 -3.235235 0.944782 -0.094924 2.136570 7.125000 0.000000 0.000000 
-0.362847 17.924161 -31.094571 -7.252694 -7.021171 2.083985 -4.253086 -10.799076 -28.618926 -0.908024 6.392473 18.096011 -1.961146 9.882822 11.670921 0.114900 -2.185900 -6.019700 27.923344 11.203372 -3.696552 -0.868389 -5.813160 24.033497 0.557343 -3.249702 -2.619361 -0.102100 -2.060100 5.671900 4.452122 2.675854 5.837252 -1.320202 1.372717 -5.381829 4.267678 -5.306672 16.211446 -0.147700 -2.108400 9.062000 -81.978406 5.262862 24.891393 12.855296 -21.805782 -2.602128 -0.508704 -0.848206 -2.235979 -7.125000 0.000000 0.000000 71.422350 9.729331 24.383072 -12.313155 24.722689 -3.288341 0.915907 -0.095376 2.225629 7.125000 0.000000 0.000000 
-0.354339 17.909847 -30.927110 -7.395263 -7.290465 2.179358 -3.532846 -11.364669 -28.181523 -1.214868 5.619559 15.848873 -2.168831 10.618204 11.795039 0.125700 -2.285300 -6.294900 28.008631 11.261102 -2.958574 -0.823946 -5.720677 23.779673 0.579010 -3.356857 -3.027272 -0.068900 -1.693700 4.660000 4.358810 2.918433 5.970496 -1.443030 1.497187 -5.254023 4.410260 -5.549326 16.630681 -0.156300 -2.175200 9.313400 -81.873566 5.144509 25.078870 12.886477 -21.857446 -2.614062 -0.501253 -0.859960 -2.091816 -7.125000 0.000000 0.000000 71.506178 10.191423 24.247271 -12.484932 24.959396 -3.359921 0.909466 -0.175222 2.043000 7.125000 0.000000 0.000000 
-0.344330 17.900138 -30.759350 -7.312453 -7.404193 2.258299 -3.026310 -12.159012 -27.671232 -1.469001 4.861890 13.743770 -2.458300 11.528650 11.766921 0.222000 -3.033000 -8.370600 27.806175 11.198481 -2.358971 -0.761699 -5.628513 23.468433 0.622679 -3.514975 -3.245048 -0.047700 -1.410000 3.877600 4.621085 2.828549 5.291068 -1.225006 1.442319 -5.584499 4.845326 -5.314744 15.673105 0.180500 -2.141500 8.494500 -82.417540 6.828424 24.402779 12.943579 -21.933698 -2.634339 -0.504858 -0.865463 -1.719786 -7.125000 0.000000 0.000000 70.986668 8.857648 25.381264 -12.797605 25.444230 -3.482532 0.943179 -0.234095 1.507033 7.125000 0.000000 0.000000 
-0.333319 17.890729 -30.593391 -7.449118 -7.438829 2.328942 -2.353816 -12.889712 -27.207074 -1.667329 4.165903 11.768558 -2.754033 12.528109 11.977289 0.245000 -3.185200 -8.794800 27.859361 11.069821 -1.742904 -0.695795 -5.505948 23.100070 0.679677 -3.691848 -3.378905 -0.029800 -1.115300 3.066000 4.811786 2.648270 4.987601 -1.168829 1.349935 -5.678266 5.129970 -4.928851 15.097945 0.401100 -1.997200 8.086000 -82.862622 7.742578 23.702824 12.913943 -21.880398 -2.622546 -0.515864 -0.851026 -1.574282 -7.125000 0.000000 0.000000 70.688032 8.286984 26.296771 -13.069087 25.852842 -3.624538 0.918738 -0.186776 1.286812 7.125000 0.000000 0.000000 
